<svg width="176" height="175" viewBox="0 0 176 175" fill="none" xmlns="http://www.w3.org/2000/svg">
<circle cx="88" cy="87.5" r="87" stroke="black"/>
<mask id="mask0_1_547" style="mask-type:alpha" maskUnits="userSpaceOnUse" x="0" y="0" width="176" height="175">
<circle cx="88" cy="87.5" r="87.5" fill="#D9D9D9"/>
</mask>
<g mask="url(#mask0_1_547)">
<path d="M48.8501 97.6966C51.6687 102.47 55.6015 106.475 58.8861 110.941C64.4269 118.475 68.1015 127.369 69.4963 136.616C70.4466 142.912 70.844 150.272 76.0463 153.943C78.671 155.796 82.0167 156.251 85.2263 156.435C88.7616 156.639 92.6718 156.449 95.2815 154.054C98.639 150.973 98.4129 145.753 98.6925 141.205C99.3985 129.732 104.845 119.185 108.797 108.389C114.004 94.1667 116.702 79.0292 116.732 63.8831C116.744 57.7606 116.109 51.1056 111.955 46.6072C108.486 42.8502 103.231 41.361 98.1858 40.5244C84.0339 38.1771 64.2962 40.3337 57.2213 54.6774C51.4255 66.4296 41.8267 85.7998 48.8501 97.6966Z" fill="#FFE7FB"/>
<path d="M41.0847 185.001C44.5783 172.864 53.8547 161.526 66.3118 159.447C69.1133 158.98 72.084 159.009 74.6765 160.168C76.4238 160.949 77.9097 162.2 79.5135 163.245C83.4205 165.79 88.1118 167.112 92.7741 166.981C99.1516 166.804 105.423 163.996 111.729 164.974C119.873 166.238 125.757 173.448 129.505 180.788C136.197 193.901 138.647 209.137 136.403 223.687C136.142 225.358 65.9251 223.351 59.3408 223.312C50.8197 223.262 43.2627 224.003 39.8645 215.012C36.6195 206.427 38.6572 193.438 41.0847 185.001Z" fill="#C3C62B"/>
<path d="M122.859 83.9242C120.006 89.7746 118.941 96.4831 119.839 102.931C124.124 104.243 128.577 101.657 132.084 98.8678C134.383 97.038 136.628 94.9961 137.91 92.3521C139.195 89.7082 139.33 86.3271 137.559 83.982C135.931 81.8266 133.025 80.9567 130.327 81.112C127.631 81.2674 125.072 82.2947 122.568 83.3082" fill="#FFE7FB"/>
<path d="M88.9909 102.752C89.3305 102.832 88.1606 107.182 83.2476 107.1C78.3346 107.019 74.7318 108.983 74.8143 117.582L72.6599 116.27C72.6599 116.27 68.1219 97.831 88.9909 102.752Z" fill="black"/>
<path d="M89.1006 102.752C88.7599 102.832 89.9298 107.182 94.8428 107.1C99.7558 107.019 103.359 108.983 103.277 117.582L105.432 116.27C105.432 116.27 109.969 97.831 89.1006 102.752Z" fill="black"/>
<path d="M55.0681 66.7737C55.0681 66.7737 54.8753 78.9748 57.35 92.8492C59.5783 105.341 63.9599 119.182 72.5839 126.681C76.5799 130.151 81.4758 132.262 87.4858 132.272C92.2638 132.272 96.3883 131.352 99.945 129.713C100.749 129.347 101.52 128.941 102.259 128.501C102.505 128.363 102.752 128.212 102.988 128.051C103.48 127.752 103.952 127.43 104.412 127.088C104.605 126.949 104.787 126.81 104.98 126.669C105.248 126.456 105.516 126.252 105.773 126.028C106.201 125.674 106.619 125.309 107.026 124.924C107.476 124.505 107.926 124.067 108.355 123.606C108.698 123.242 109.04 122.855 109.373 122.471C109.405 122.439 109.437 122.396 109.469 122.363C109.769 122.01 110.058 121.645 110.337 121.282C110.38 121.239 110.422 121.185 110.455 121.142C116.282 113.558 119.218 103.187 120.632 93.5231C120.643 93.492 120.643 93.4802 120.643 93.4802C122.71 79.3497 121.553 66.7737 121.553 66.7737" stroke="black" stroke-miterlimit="10"/>
<path d="M76.1084 129.08L76.0977 129.22L74.9407 141.411L73.9765 151.598L58.8497 161.081L53.0325 164.734C52.4004 165.13 51.7791 165.537 51.1684 165.966C40.8304 173.111 33.5669 183.931 30.8887 196.261L25.5 221.041" stroke="black" stroke-miterlimit="10"/>
<path d="M99.9453 129.713L100.267 133.109L102.024 151.598L118.961 162.226L122.968 164.734C124.232 165.525 125.464 166.372 126.642 167.283C136.016 174.397 142.594 184.66 145.111 196.261L150.5 221.041" stroke="black" stroke-miterlimit="10"/>
<path d="M56.0963 85.7811C56.0963 85.7811 48.5619 75.1817 44.147 79.6715C39.7333 84.1613 46.6871 107.432 59.6702 105.448" stroke="black" stroke-miterlimit="10"/>
<path d="M121.571 85.4786C121.571 85.4786 128.746 74.6328 133.308 78.9715C137.871 83.3103 131.701 106.802 118.659 105.255" stroke="black" stroke-miterlimit="10"/>
<path d="M48.943 89.0945C48.943 89.0945 55.0141 89.4544 57.3463 94.4114" stroke="black" stroke-miterlimit="10"/>
<path d="M51.9062 94.1082C51.9062 94.1082 52.2116 92.0438 56.0876 92.5002" stroke="black" stroke-miterlimit="10"/>
<path d="M128.971 88.5535C128.971 88.5535 122.915 89.1159 120.751 94.1478" stroke="black" stroke-miterlimit="10"/>
<path d="M126.178 93.6635C126.178 93.6635 125.804 91.6098 121.944 92.1968" stroke="black" stroke-miterlimit="10"/>
<path d="M120.751 87.4038C120.751 87.4038 116.984 85.7658 116.984 81.8352C116.984 77.9046 118.949 70.8629 116.329 66.7684C113.71 62.6749 109.942 58.9082 109.942 58.9082C109.942 58.9082 87.1788 53.3407 61.3036 62.0193C61.3036 62.0193 57.4984 65.5075 58.5193 72.276C60.9758 88.5534 56.3424 87.466 56.3424 87.466C56.3424 87.466 48.9429 76.7583 51.2462 66.1963C51.2462 66.1963 37.3611 52.9582 47.9573 32.296C59.671 9.45042 100.059 11.1463 113.817 26.2838C124.862 38.4378 120.751 46.4618 120.751 46.4618C120.751 46.4618 136.475 60.5463 120.751 87.4038Z" fill="black"/>
<path d="M67.6158 56.1227C65.5471 53.6126 63.9648 50.7137 62.7317 47.6851C61.4997 44.649 60.7509 41.4094 60.4852 38.1301C60.3052 36.49 60.4252 34.8402 60.4766 33.1957C60.7573 31.5727 60.8591 29.9164 61.4086 28.3566C61.6583 27.5735 61.8136 26.7636 62.1392 26.0105L63.0959 23.75C63.3905 22.9862 63.8469 22.3016 64.2594 21.5999C64.6729 20.8982 65.0982 20.2061 65.5278 19.5205C64.1587 22.4623 62.7981 25.3955 62.2078 28.5548C61.789 30.0986 61.7011 31.7012 61.4879 33.276C61.4718 34.8691 61.3594 36.461 61.5522 38.0476C61.7847 41.223 62.4767 44.363 63.4998 47.399C64.029 48.9117 64.6183 50.4083 65.3221 51.8567C65.9735 53.333 66.7673 54.7396 67.6158 56.1227Z" fill="white"/>
<path d="M74.9819 15.8914C73.8635 17.7244 73.1575 19.7363 72.549 21.7492C71.9715 23.7772 71.5837 25.8523 71.3352 27.9446L71.1606 29.5162L71.0684 31.0974C70.9624 32.1516 71.017 33.2111 70.9699 34.2717C70.9624 35.3323 71.0192 36.394 71.0224 37.461C71.0609 38.5269 71.1552 39.5907 71.1702 40.6696C70.9142 39.6272 70.717 38.5709 70.4996 37.5135C70.3699 36.4465 70.1996 35.3784 70.1343 34.3006C69.9982 32.1473 70.0046 29.9726 70.2714 27.8171C70.5478 25.667 70.9967 23.5276 71.7573 21.4889C72.5158 19.462 73.5239 17.4844 74.9819 15.8914Z" fill="white"/>
<path d="M73.6258 28.2811C73.4951 27.1209 73.5412 25.9585 73.6644 24.8058C73.7811 23.652 74.0125 22.51 74.3339 21.3883C74.6725 20.272 75.0807 19.1643 75.6934 18.1498C76.2891 17.1396 77.0508 16.1743 78.0524 15.5615C77.3604 16.5011 76.8751 17.4984 76.4412 18.5226C76.0138 19.5478 75.6699 20.6116 75.3624 21.6883C74.7143 23.8384 74.2483 26.0442 73.6258 28.2811Z" fill="white"/>
<path d="M87.5578 28.281C87.4731 30.6068 87.321 32.9058 87.3563 35.2038C87.3938 37.4996 87.5085 39.7868 87.8106 42.0505C88.1148 44.3131 88.6237 46.535 89.2847 48.7193C89.6639 49.7928 90.0239 50.8823 90.5424 51.9043C90.9441 52.9917 91.6041 53.9334 92.1205 54.9843C90.6153 53.2145 89.394 51.1812 88.5091 49C87.6413 46.8146 87.0853 44.5145 86.7478 42.1919C86.4661 39.8618 86.3772 37.5124 86.5357 35.1823C86.6064 34.0168 86.7361 32.8565 86.8957 31.7038C87.0842 30.5532 87.3081 29.4134 87.5578 28.281Z" fill="white"/>
<path d="M82.8463 57.5541C82.8463 57.5541 73.7499 60.4638 76.8202 66.7684C76.8202 66.7684 69.9564 56.1593 82.8463 57.5541Z" fill="black"/>
<path d="M64.2513 75.7553C64.8019 75.0482 65.4147 74.5576 66.0371 74.083L67.9034 74.158C69.145 74.2308 70.3845 74.3723 71.6197 74.5833C72.8571 74.7901 74.0859 75.1061 75.3018 75.4928C75.906 75.7018 76.5113 75.9128 77.1026 76.1828C77.5076 76.8663 77.8451 77.6183 78.054 78.4432C77.2033 78.7368 76.5199 78.8771 75.8149 79.1288C75.3275 78.9028 74.8111 78.7239 74.2948 78.545C73.2492 78.214 72.1747 77.9333 71.0691 77.7501C69.9656 77.5615 68.8451 77.433 67.717 77.3666C67.1524 77.343 66.5878 77.2991 66.0254 77.3291C65.4597 76.8459 64.8855 76.3852 64.2513 75.7553Z" fill="black"/>
<path d="M72.6605 84.998C72.6605 86.7271 71.781 88.1294 70.6947 88.1294C69.6095 88.1294 68.7299 86.7271 68.7299 84.998C68.7299 83.2678 69.6095 81.8655 70.6947 81.8655C71.781 81.8655 72.6605 83.2678 72.6605 84.998Z" fill="black"/>
<path d="M111.118 74.9571C110.495 75.5902 109.952 76.0734 109.424 76.5758C108.879 76.5694 108.333 76.6412 107.788 76.699C106.698 76.8319 105.618 77.0547 104.567 77.3558C103.514 77.6493 102.489 78.0296 101.515 78.5031C101.02 78.7259 100.549 78.9906 100.084 79.2637C99.3585 79.103 98.6568 79.0484 97.7827 78.8459C97.8994 78.006 98.134 77.2272 98.4436 76.4998C98.9953 76.1762 99.5535 75.8656 100.133 75.602C101.279 75.046 102.473 74.6036 103.69 74.264C104.905 73.9169 106.142 73.6619 107.392 73.5098C108.017 73.4273 108.646 73.3941 109.277 73.333C109.928 73.784 110.565 74.2533 111.118 74.9571Z" fill="black"/>
<path d="M103.011 84.998C103.011 86.7271 103.891 88.1294 104.976 88.1294C106.062 88.1294 106.942 86.7271 106.942 84.998C106.942 83.2678 106.062 81.8655 104.976 81.8655C103.891 81.8655 103.011 83.2678 103.011 84.998Z" fill="black"/>
<path d="M85.3271 83.5903C85.4503 84.081 85.6956 91.5105 82.1346 99.8024C82.1346 99.8024 85.8884 102.307 90.4329 99.5238" stroke="black" stroke-miterlimit="10"/>
<path d="M80.7319 109.714C80.7319 109.714 88.9991 111.494 97.7838 110.192" stroke="black" stroke-miterlimit="10"/>
<path d="M85.4294 113.472C85.4294 113.472 90.0992 114.25 92.5525 112.94" stroke="black" stroke-miterlimit="10"/>
<path d="M120.632 93.5235C119.218 103.188 116.283 113.558 110.455 121.143C107.659 124.764 104.209 127.753 99.9455 129.713C96.3888 131.352 92.2643 132.273 87.4862 132.273C81.4762 132.263 76.5804 130.151 72.5844 126.681C63.9604 119.182 59.5788 105.341 57.3505 92.8496C57.3505 92.8496 63.0605 106.487 67.1208 111.147C71.1703 115.818 75.177 119.417 89.4468 119.664C103.717 119.417 107.734 115.818 111.783 111.147C115.704 106.637 120.343 94.2841 120.632 93.5235Z" fill="black"/>
<path d="M73.9734 151.599L90.433 169.123L102.027 151.599" stroke="black" stroke-miterlimit="10"/>
<path d="M67.7391 155.51L75.3871 171.251L85.8891 164.284" stroke="black" stroke-miterlimit="10"/>
<path d="M94.8002 162.522L103.719 171.251L111.345 157.443" stroke="black" stroke-miterlimit="10"/>
<path d="M90.4332 169.123H94.7998C94.7998 169.123 95.6943 177.147 91.272 178.621L90.4332 221.036" stroke="black" stroke-miterlimit="10"/>
<path d="M62.4384 221.042H53.9216L51.1683 165.966C51.779 165.537 52.4003 165.13 53.0324 164.734L58.8496 161.081L62.4384 221.042Z" fill="black"/>
<path d="M126.642 167.283L123.963 221.041H115.447L118.96 162.227L122.967 164.734C124.231 165.525 125.463 166.372 126.642 167.283Z" fill="black"/>
<path d="M100.267 133.109C91.3965 136.076 79.6657 139.89 74.9412 141.411L76.0982 129.22C79.3657 131.159 83.1367 132.262 87.4862 132.272C92.2642 132.272 96.3887 131.352 99.9455 129.713L100.267 133.109Z" fill="black"/>
</g>
</svg>
